<svg width="24" height="25" viewBox="0 0 24 25" fill="none" xmlns="http://www.w3.org/2000/svg">
<path d="M10.9399 6.58019C11.2907 6.52642 11.6451 6.49967 11.9999 6.50019C15.1799 6.50019 18.1699 8.79018 19.9099 12.5002C19.6438 13.0648 19.3433 13.6125 19.0099 14.1402C18.9041 14.304 18.8485 14.4952 18.8499 14.6902C18.8522 14.9084 18.9257 15.1199 19.0594 15.2925C19.1931 15.465 19.3795 15.589 19.5903 15.6457C19.8011 15.7024 20.0246 15.6885 20.2267 15.6063C20.4289 15.524 20.5986 15.3779 20.7099 15.1902C21.1759 14.4581 21.5806 13.6888 21.9199 12.8902C21.9736 12.7654 22.0013 12.631 22.0013 12.4952C22.0013 12.3594 21.9736 12.225 21.9199 12.1002C19.8999 7.41019 16.0999 4.50019 11.9999 4.50019C11.5306 4.49782 11.062 4.53798 10.5999 4.62019C10.4686 4.64251 10.343 4.69048 10.2302 4.76136C10.1174 4.83224 10.0197 4.92464 9.94263 5.03329C9.86555 5.14193 9.81063 5.26469 9.78101 5.39456C9.75138 5.52443 9.74762 5.65886 9.76994 5.79019C9.79227 5.92151 9.84024 6.04715 9.91112 6.15993C9.982 6.27271 10.0744 6.37043 10.183 6.4475C10.2917 6.52457 10.4144 6.57949 10.5443 6.60912C10.6742 6.63875 10.8086 6.64251 10.9399 6.62019V6.58019ZM3.70994 2.79019C3.6167 2.69695 3.50601 2.62299 3.38419 2.57253C3.26237 2.52207 3.1318 2.49609 2.99994 2.49609C2.86808 2.49609 2.73751 2.52207 2.61569 2.57253C2.49387 2.62299 2.38318 2.69695 2.28994 2.79019C2.10164 2.97849 1.99585 3.23388 1.99585 3.50019C1.99585 3.76649 2.10164 4.02188 2.28994 4.21019L5.38994 7.30019C3.97551 8.66171 2.8498 10.2942 2.07994 12.1002C2.02488 12.2264 1.99646 12.3625 1.99646 12.5002C1.99646 12.6378 2.02488 12.774 2.07994 12.9002C4.09994 17.5902 7.89994 20.5002 11.9999 20.5002C13.797 20.4878 15.5517 19.9527 17.0499 18.9602L20.2899 22.2102C20.3829 22.3039 20.4935 22.3783 20.6154 22.4291C20.7372 22.4798 20.8679 22.506 20.9999 22.506C21.132 22.506 21.2627 22.4798 21.3845 22.4291C21.5064 22.3783 21.617 22.3039 21.7099 22.2102C21.8037 22.1172 21.8781 22.0066 21.9288 21.8848C21.9796 21.7629 22.0057 21.6322 22.0057 21.5002C22.0057 21.3682 21.9796 21.2375 21.9288 21.1156C21.8781 20.9937 21.8037 20.8831 21.7099 20.7902L3.70994 2.79019ZM10.0699 11.9802L12.5199 14.4302C12.3509 14.4787 12.1758 14.5022 11.9999 14.5002C11.4695 14.5002 10.9608 14.2895 10.5857 13.9144C10.2107 13.5393 9.99994 13.0306 9.99994 12.5002C9.99789 12.3244 10.0215 12.1492 10.0699 11.9802ZM11.9999 18.5002C8.81994 18.5002 5.82994 16.2102 4.09994 12.5002C4.74603 11.0739 5.66301 9.78676 6.79994 8.71019L8.56994 10.5002C8.15419 11.259 7.99568 12.1321 8.1182 12.9886C8.24072 13.8452 8.63766 14.6388 9.24947 15.2507C9.86128 15.8625 10.655 16.2594 11.5115 16.3819C12.368 16.5044 13.2411 16.3459 13.9999 15.9302L15.5899 17.5002C14.501 18.1411 13.2634 18.4858 11.9999 18.5002Z" fill="#58667E"/>
</svg>
