<svg width="24" height="25" viewBox="0 0 24 25" fill="none" xmlns="http://www.w3.org/2000/svg">
<path d="M15.71 13.2096C16.6904 12.4383 17.406 11.3806 17.7572 10.1836C18.1085 8.9866 18.0779 7.7099 17.6698 6.5311C17.2617 5.35231 16.4963 4.33003 15.4801 3.60649C14.4639 2.88296 13.2474 2.49414 12 2.49414C10.7525 2.49414 9.53611 2.88296 8.51993 3.60649C7.50374 4.33003 6.73834 5.35231 6.33021 6.5311C5.92208 7.7099 5.89151 8.9866 6.24276 10.1836C6.59401 11.3806 7.3096 12.4383 8.29 13.2096C6.61007 13.8827 5.14428 14.999 4.04889 16.4396C2.95349 17.8801 2.26956 19.5909 2.07 21.3896C2.05555 21.521 2.06711 21.6538 2.10402 21.7807C2.14093 21.9075 2.20246 22.0259 2.28511 22.129C2.45202 22.3371 2.69478 22.4705 2.96 22.4996C3.22521 22.5288 3.49116 22.4514 3.69932 22.2845C3.90749 22.1176 4.04082 21.8749 4.07 21.6096C4.28958 19.6548 5.22168 17.8494 6.68822 16.5384C8.15475 15.2274 10.0529 14.5027 12.02 14.5027C13.9871 14.5027 15.8852 15.2274 17.3518 16.5384C18.8183 17.8494 19.7504 19.6548 19.97 21.6096C19.9972 21.8554 20.1144 22.0823 20.2991 22.2467C20.4838 22.411 20.7228 22.5011 20.97 22.4996H21.08C21.3421 22.4695 21.5817 22.3369 21.7466 22.1309C21.9114 21.9248 21.9881 21.662 21.96 21.3996C21.7595 19.5958 21.0719 17.8806 19.9708 16.4378C18.8698 14.9951 17.3969 13.8791 15.71 13.2096ZM12 12.4996C11.2089 12.4996 10.4355 12.265 9.77772 11.8255C9.11992 11.386 8.60723 10.7613 8.30448 10.0304C8.00173 9.29947 7.92251 8.4952 8.07686 7.71928C8.2312 6.94335 8.61216 6.23062 9.17157 5.67121C9.73098 5.1118 10.4437 4.73084 11.2196 4.5765C11.9956 4.42215 12.7998 4.50137 13.5307 4.80412C14.2616 5.10687 14.8863 5.61956 15.3259 6.27736C15.7654 6.93515 16 7.70851 16 8.49964C16 9.5605 15.5786 10.5779 14.8284 11.3281C14.0783 12.0782 13.0609 12.4996 12 12.4996Z" fill="#58667E"/>
</svg>
